<svg width="24" height="24" viewBox="0 0 24 24" fill="currentColor" xmlns="http://www.w3.org/2000/svg">
<path d="M16.4277 4.27909C19.8127 3.9406 22.75 6.59895 22.75 10.0008V15.9998C22.7498 20.3439 17.0727 21.9907 14.748 18.3211C13.6642 16.6098 11.1881 16.5524 10.0264 18.2117L9.74219 18.618C7.12508 22.3564 1.25036 20.5046 1.25 15.9412V10.0008C1.25 6.59895 4.18732 3.9406 7.57227 4.27909L11.4775 4.66972C11.8249 4.70446 12.1751 4.70446 12.5225 4.66972L16.4277 4.27909ZM8 8.72538C7.58579 8.72538 7.25 9.06117 7.25 9.47538V10.7254H6L5.92285 10.7293C5.54488 10.7679 5.25 11.0872 5.25 11.4754C5.25 11.8635 5.54488 12.1829 5.92285 12.2215L6 12.2254H7.25V13.4754L7.25391 13.5525C7.29253 13.9305 7.61183 14.2254 8 14.2254C8.38817 14.2254 8.70747 13.9305 8.74609 13.5525L8.75 13.4754V12.2254H10C10.4142 12.2254 10.75 11.8896 10.75 11.4754C10.75 11.0612 10.4142 10.7254 10 10.7254H8.75V9.47538C8.75 9.06117 8.41421 8.72538 8 8.72538ZM16 11.9754C15.4477 11.9754 15 12.4231 15 12.9754C15 13.5277 15.4477 13.9754 16 13.9754C16.5523 13.9754 17 13.5277 17 12.9754C17 12.4231 16.5523 11.9754 16 11.9754ZM18 8.97538C17.4477 8.97538 17 9.4231 17 9.97538C17 10.5277 17.4477 10.9754 18 10.9754C18.5523 10.9754 19 10.5277 19 9.97538C19 9.4231 18.5523 8.97538 18 8.97538Z" fill="currentColor"/>
</svg>
