<svg width="24" height="24" viewBox="0 0 24 24" fill="currentColor" xmlns="http://www.w3.org/2000/svg">
<path d="M19.8226 1.62201C21.3675 1.50979 22.609 2.80674 22.4046 4.37006L22.3411 4.83099C21.9851 7.2244 21.0994 10.8978 18.8538 13.3193L18.4466 13.7382C17.7738 14.4001 17.0066 15.0147 16.2229 15.5732L16.5003 17.5117L16.5179 17.7158C16.5296 18.1914 16.3466 18.6553 16.0061 18.996L12.8235 22.1787C11.8357 23.1661 10.1662 22.651 9.87724 21.3203L9.8538 21.1884L9.429 18.2187L9.43486 18.2177C9.16302 18.0865 8.90927 17.9108 8.68974 17.6913L6.35087 15.3515C6.13121 15.1318 5.95477 14.8785 5.82353 14.6064V14.6132L2.85283 14.1884C1.42572 13.9841 0.844311 12.2383 1.86357 11.2187L5.04521 8.03607C5.43468 7.6467 5.98536 7.46407 6.53056 7.54193L8.46806 7.8183C9.14259 6.87172 9.90131 5.95047 10.7229 5.18842L10.9681 4.96869C13.5535 2.74072 17.3868 1.93556 19.6722 1.63666L19.8226 1.62201ZM7.5208 19.7031C7.8137 19.4107 8.28862 19.4104 8.58134 19.7031C8.87419 19.9959 8.87411 20.4717 8.58134 20.7646L7.16728 22.1787C6.87439 22.4715 6.39865 22.4715 6.10576 22.1787C5.8131 21.8859 5.81332 21.411 6.10576 21.1181L7.5208 19.7031ZM5.39873 17.582C5.69163 17.2892 6.1674 17.2891 6.46025 17.582C6.75283 17.8747 6.75257 18.3496 6.46025 18.6425L3.63115 21.4716C3.33828 21.7642 2.86341 21.7643 2.5706 21.4716C2.2778 21.1788 2.27798 20.704 2.5706 20.4111L5.39873 17.582ZM3.27763 15.4609C3.57049 15.1682 4.04532 15.1682 4.33818 15.4609C4.63103 15.7537 4.63094 16.2285 4.33818 16.5214L2.92412 17.9355C2.63122 18.2284 2.15646 18.2284 1.86357 17.9355C1.5708 17.6426 1.57072 17.1678 1.86357 16.8749L3.27763 15.4609ZM16.5354 7.5058C15.7544 6.72495 14.4883 6.72495 13.7073 7.5058C12.9263 8.2868 12.9264 9.55286 13.7073 10.3339C14.4884 11.115 15.7544 11.115 16.5354 10.3339C17.3163 9.55286 17.3164 8.2868 16.5354 7.5058Z" fill="currentColor"/>
</svg>
